<mxfile host="app.diagrams.net" agent="Mozilla/5.0 (Windows NT 10.0; Win64; x64; rv:144.0) Gecko/20100101 Firefox/144.0" version="28.2.8">
  <diagram name="Page-1" id="LP3fsZgQGKcDelFmxo1t">
    <mxGraphModel dx="4814" dy="3624" grid="1" gridSize="10" guides="1" tooltips="1" connect="1" arrows="1" fold="1" page="1" pageScale="1" pageWidth="850" pageHeight="1100" math="0" shadow="0">
      <root>
        <mxCell id="0" />
        <mxCell id="1" parent="0" />
        <mxCell id="KeXLQscbyMb3ar5vxedf-1" value="&lt;div align=&quot;left&quot;&gt;Client-side&lt;/div&gt;" style="rounded=0;whiteSpace=wrap;html=1;align=left;verticalAlign=top;strokeWidth=2;fontStyle=1" vertex="1" parent="1">
          <mxGeometry x="-630" y="-780" width="1310" height="1060" as="geometry" />
        </mxCell>
        <mxCell id="KeXLQscbyMb3ar5vxedf-32" value="EJS templates" style="rounded=0;whiteSpace=wrap;html=1;align=left;verticalAlign=top;strokeWidth=2;fontStyle=1" vertex="1" parent="1">
          <mxGeometry x="-540" y="-720" width="866" height="790" as="geometry" />
        </mxCell>
        <mxCell id="KeXLQscbyMb3ar5vxedf-68" value="&lt;div&gt;EJS templates &amp;gt; index templates&lt;/div&gt;" style="rounded=0;whiteSpace=wrap;html=1;align=left;verticalAlign=top;strokeWidth=2;fontStyle=1" vertex="1" parent="1">
          <mxGeometry x="-250" y="-40" width="450" height="90" as="geometry" />
        </mxCell>
        <mxCell id="KeXLQscbyMb3ar5vxedf-58" value="&lt;div&gt;EJS templates &amp;gt; partials&lt;/div&gt;" style="rounded=0;whiteSpace=wrap;html=1;align=left;verticalAlign=top;strokeWidth=2;fontStyle=1" vertex="1" parent="1">
          <mxGeometry x="-500" y="-670" width="770" height="620" as="geometry" />
        </mxCell>
        <mxCell id="KeXLQscbyMb3ar5vxedf-83" style="edgeStyle=orthogonalEdgeStyle;rounded=0;orthogonalLoop=1;jettySize=auto;html=1;entryX=0.5;entryY=0;entryDx=0;entryDy=0;entryPerimeter=0;exitX=0;exitY=0;exitDx=0;exitDy=37.5;exitPerimeter=0;jumpStyle=arc;" edge="1" parent="1" source="KeXLQscbyMb3ar5vxedf-33" target="KeXLQscbyMb3ar5vxedf-62">
          <mxGeometry relative="1" as="geometry">
            <mxPoint x="470" y="-327" as="sourcePoint" />
            <Array as="points">
              <mxPoint x="180" y="-312" />
              <mxPoint x="180" y="-370" />
              <mxPoint x="-129" y="-370" />
            </Array>
          </mxGeometry>
        </mxCell>
        <mxCell id="KeXLQscbyMb3ar5vxedf-22" value="Visualization logic" style="rounded=0;whiteSpace=wrap;html=1;align=left;verticalAlign=top;strokeWidth=2;fontStyle=1" vertex="1" parent="1">
          <mxGeometry x="445" y="-275" width="200" height="90" as="geometry" />
        </mxCell>
        <mxCell id="KeXLQscbyMb3ar5vxedf-2" value="&lt;div align=&quot;left&quot;&gt;Server-side&lt;/div&gt;" style="rounded=0;whiteSpace=wrap;html=1;align=left;verticalAlign=top;strokeWidth=2;fontStyle=1" vertex="1" parent="1">
          <mxGeometry x="20" y="300" width="790" height="430" as="geometry" />
        </mxCell>
        <mxCell id="KeXLQscbyMb3ar5vxedf-16" value="Database information" style="rounded=0;whiteSpace=wrap;html=1;align=left;verticalAlign=top;strokeWidth=2;fontStyle=1" vertex="1" parent="1">
          <mxGeometry x="320" y="310" width="410" height="400" as="geometry" />
        </mxCell>
        <mxCell id="KeXLQscbyMb3ar5vxedf-5" value="Routing logic" style="rounded=0;whiteSpace=wrap;html=1;align=left;verticalAlign=top;strokeWidth=2;fontStyle=1" vertex="1" parent="1">
          <mxGeometry x="30" y="340" width="270" height="90" as="geometry" />
        </mxCell>
        <mxCell id="KeXLQscbyMb3ar5vxedf-84" style="edgeStyle=orthogonalEdgeStyle;rounded=0;orthogonalLoop=1;jettySize=auto;html=1;entryX=0.5;entryY=1;entryDx=0;entryDy=0;startArrow=classic;startFill=1;" edge="1" parent="1" source="KeXLQscbyMb3ar5vxedf-3" target="KeXLQscbyMb3ar5vxedf-28">
          <mxGeometry relative="1" as="geometry">
            <Array as="points">
              <mxPoint x="130" y="260" />
              <mxPoint x="427" y="260" />
            </Array>
          </mxGeometry>
        </mxCell>
        <mxCell id="KeXLQscbyMb3ar5vxedf-85" value="&lt;div&gt;Logic&lt;/div&gt;&lt;div&gt;Data&lt;/div&gt;" style="edgeLabel;html=1;align=center;verticalAlign=middle;resizable=0;points=[];" vertex="1" connectable="0" parent="KeXLQscbyMb3ar5vxedf-84">
          <mxGeometry x="0.2961" y="-1" relative="1" as="geometry">
            <mxPoint as="offset" />
          </mxGeometry>
        </mxCell>
        <mxCell id="KeXLQscbyMb3ar5vxedf-3" value="Server.js" style="shape=card;whiteSpace=wrap;html=1;" vertex="1" parent="1">
          <mxGeometry x="90" y="372.5" width="80" height="45" as="geometry" />
        </mxCell>
        <mxCell id="KeXLQscbyMb3ar5vxedf-4" value="lollipop3dchart.js" style="shape=card;whiteSpace=wrap;html=1;" vertex="1" parent="1">
          <mxGeometry x="466" y="-247.5" width="160" height="45" as="geometry" />
        </mxCell>
        <mxCell id="KeXLQscbyMb3ar5vxedf-6" value="Data storage" style="rounded=0;whiteSpace=wrap;html=1;align=left;verticalAlign=top;strokeWidth=2;" vertex="1" parent="1">
          <mxGeometry x="340" y="340" width="210" height="140" as="geometry" />
        </mxCell>
        <mxCell id="KeXLQscbyMb3ar5vxedf-7" value="&lt;div&gt;Platform: MongoDB&lt;/div&gt;&lt;div&gt;Cluster: mdw-ga-project-cluster0&lt;/div&gt;&lt;div&gt;Collection: gacruddna&lt;/div&gt;&lt;div&gt;Document: nucleotidepairdatas&lt;/div&gt;&lt;div&gt;&lt;br&gt;&lt;/div&gt;" style="shape=cylinder3;whiteSpace=wrap;html=1;boundedLbl=1;backgroundOutline=1;size=15;align=left;verticalAlign=top;" vertex="1" parent="1">
          <mxGeometry x="360" y="364" width="180" height="110" as="geometry" />
        </mxCell>
        <mxCell id="KeXLQscbyMb3ar5vxedf-8" value="" style="endArrow=classic;startArrow=classic;html=1;rounded=0;exitX=1;exitY=0.5;exitDx=0;exitDy=0;exitPerimeter=0;entryX=0;entryY=0.5;entryDx=0;entryDy=0;entryPerimeter=0;jumpStyle=none;strokeColor=default;edgeStyle=orthogonalEdgeStyle;" edge="1" parent="1" source="KeXLQscbyMb3ar5vxedf-3" target="KeXLQscbyMb3ar5vxedf-7">
          <mxGeometry width="50" height="50" relative="1" as="geometry">
            <mxPoint x="280" y="290" as="sourcePoint" />
            <mxPoint x="330" y="240" as="targetPoint" />
          </mxGeometry>
        </mxCell>
        <mxCell id="KeXLQscbyMb3ar5vxedf-9" value="mongoose" style="edgeLabel;html=1;align=center;verticalAlign=middle;resizable=0;points=[];" vertex="1" connectable="0" parent="KeXLQscbyMb3ar5vxedf-8">
          <mxGeometry x="-0.4471" y="-3" relative="1" as="geometry">
            <mxPoint as="offset" />
          </mxGeometry>
        </mxCell>
        <mxCell id="KeXLQscbyMb3ar5vxedf-10" value="Javascript package information" style="rounded=0;whiteSpace=wrap;html=1;align=left;verticalAlign=top;strokeWidth=2;fontStyle=1" vertex="1" parent="1">
          <mxGeometry x="30" y="470" width="120" height="100" as="geometry" />
        </mxCell>
        <mxCell id="KeXLQscbyMb3ar5vxedf-11" value="package.json" style="shape=card;whiteSpace=wrap;html=1;" vertex="1" parent="1">
          <mxGeometry x="40" y="505" width="90" height="45" as="geometry" />
        </mxCell>
        <mxCell id="KeXLQscbyMb3ar5vxedf-12" value="" style="endArrow=classic;html=1;rounded=0;exitX=0;exitY=0;exitDx=60;exitDy=0;exitPerimeter=0;entryX=0.5;entryY=1;entryDx=0;entryDy=0;entryPerimeter=0;edgeStyle=orthogonalEdgeStyle;" edge="1" parent="1" source="KeXLQscbyMb3ar5vxedf-11" target="KeXLQscbyMb3ar5vxedf-3">
          <mxGeometry width="50" height="50" relative="1" as="geometry">
            <mxPoint x="400" y="360" as="sourcePoint" />
            <mxPoint x="450" y="310" as="targetPoint" />
          </mxGeometry>
        </mxCell>
        <mxCell id="KeXLQscbyMb3ar5vxedf-13" value="Database credentials" style="rounded=0;whiteSpace=wrap;html=1;align=left;verticalAlign=top;strokeWidth=2;fontStyle=1" vertex="1" parent="1">
          <mxGeometry x="330" y="610" width="140" height="90" as="geometry" />
        </mxCell>
        <mxCell id="KeXLQscbyMb3ar5vxedf-14" value=".env" style="shape=card;whiteSpace=wrap;html=1;" vertex="1" parent="1">
          <mxGeometry x="345" y="645" width="90" height="45" as="geometry" />
        </mxCell>
        <mxCell id="KeXLQscbyMb3ar5vxedf-15" value="" style="endArrow=classic;html=1;rounded=0;exitX=0;exitY=0;exitDx=0;exitDy=37.5;exitPerimeter=0;entryX=0.5;entryY=1;entryDx=0;entryDy=0;entryPerimeter=0;edgeStyle=orthogonalEdgeStyle;" edge="1" parent="1" source="KeXLQscbyMb3ar5vxedf-14" target="KeXLQscbyMb3ar5vxedf-3">
          <mxGeometry width="50" height="50" relative="1" as="geometry">
            <mxPoint x="140" y="557" as="sourcePoint" />
            <mxPoint x="170" y="470" as="targetPoint" />
            <Array as="points">
              <mxPoint x="220" y="683" />
              <mxPoint x="220" y="460" />
              <mxPoint x="130" y="460" />
            </Array>
          </mxGeometry>
        </mxCell>
        <mxCell id="KeXLQscbyMb3ar5vxedf-17" value="Database schema" style="rounded=0;whiteSpace=wrap;html=1;align=left;verticalAlign=top;strokeWidth=2;fontStyle=1" vertex="1" parent="1">
          <mxGeometry x="340" y="500" width="120" height="90" as="geometry" />
        </mxCell>
        <mxCell id="KeXLQscbyMb3ar5vxedf-18" value="nucleotide.js" style="shape=card;whiteSpace=wrap;html=1;" vertex="1" parent="1">
          <mxGeometry x="355" y="535" width="90" height="45" as="geometry" />
        </mxCell>
        <mxCell id="KeXLQscbyMb3ar5vxedf-21" style="edgeStyle=orthogonalEdgeStyle;rounded=0;orthogonalLoop=1;jettySize=auto;html=1;exitX=0;exitY=0;exitDx=0;exitDy=37.5;exitPerimeter=0;entryX=0.5;entryY=1;entryDx=0;entryDy=0;entryPerimeter=0;" edge="1" parent="1" source="KeXLQscbyMb3ar5vxedf-18" target="KeXLQscbyMb3ar5vxedf-3">
          <mxGeometry relative="1" as="geometry">
            <Array as="points">
              <mxPoint x="220" y="573" />
              <mxPoint x="220" y="460" />
              <mxPoint x="130" y="460" />
            </Array>
          </mxGeometry>
        </mxCell>
        <mxCell id="KeXLQscbyMb3ar5vxedf-23" value="Hosting" style="rounded=0;whiteSpace=wrap;html=1;align=left;verticalAlign=top;strokeWidth=2;fontStyle=1" vertex="1" parent="1">
          <mxGeometry x="446" y="-490" width="200" height="90" as="geometry" />
        </mxCell>
        <mxCell id="KeXLQscbyMb3ar5vxedf-25" value="localhost:3001" style="shape=dataStorage;whiteSpace=wrap;html=1;fixedSize=1;" vertex="1" parent="1">
          <mxGeometry x="472.5" y="-460" width="145" height="45" as="geometry" />
        </mxCell>
        <mxCell id="KeXLQscbyMb3ar5vxedf-26" value="Data validation logic" style="rounded=0;whiteSpace=wrap;html=1;align=left;verticalAlign=top;strokeWidth=2;fontStyle=1" vertex="1" parent="1">
          <mxGeometry x="446" y="-380" width="200" height="90" as="geometry" />
        </mxCell>
        <mxCell id="KeXLQscbyMb3ar5vxedf-27" value="home.ejs" style="shape=card;whiteSpace=wrap;html=1;" vertex="1" parent="1">
          <mxGeometry x="-227" y="-15" width="85" height="45" as="geometry" />
        </mxCell>
        <mxCell id="KeXLQscbyMb3ar5vxedf-28" value="Routes" style="rounded=0;whiteSpace=wrap;html=1;align=left;verticalAlign=top;strokeWidth=2;fontStyle=1" vertex="1" parent="1">
          <mxGeometry x="187.5" y="120" width="480" height="112.5" as="geometry" />
        </mxCell>
        <mxCell id="KeXLQscbyMb3ar5vxedf-29" value="/" style="shape=dataStorage;whiteSpace=wrap;html=1;fixedSize=1;" vertex="1" parent="1">
          <mxGeometry x="207.5" y="165" width="105" height="45" as="geometry" />
        </mxCell>
        <mxCell id="KeXLQscbyMb3ar5vxedf-30" value="/new" style="shape=dataStorage;whiteSpace=wrap;html=1;fixedSize=1;" vertex="1" parent="1">
          <mxGeometry x="347.5" y="165" width="105" height="45" as="geometry" />
        </mxCell>
        <mxCell id="KeXLQscbyMb3ar5vxedf-31" value="/:dataPointId" style="shape=dataStorage;whiteSpace=wrap;html=1;fixedSize=1;" vertex="1" parent="1">
          <mxGeometry x="477.5" y="162.5" width="127.5" height="45" as="geometry" />
        </mxCell>
        <mxCell id="KeXLQscbyMb3ar5vxedf-33" value="frontendbehavior.js" style="shape=card;whiteSpace=wrap;html=1;" vertex="1" parent="1">
          <mxGeometry x="465" y="-350" width="160" height="45" as="geometry" />
        </mxCell>
        <mxCell id="KeXLQscbyMb3ar5vxedf-35" value="&lt;div&gt;EJS templates &amp;gt; partials&lt;/div&gt;Cross-template" style="rounded=0;whiteSpace=wrap;html=1;align=left;verticalAlign=top;strokeWidth=2;fontStyle=1" vertex="1" parent="1">
          <mxGeometry x="-402.5" y="-554" width="160" height="310" as="geometry" />
        </mxCell>
        <mxCell id="KeXLQscbyMb3ar5vxedf-36" value="header.ejs" style="shape=card;whiteSpace=wrap;html=1;" vertex="1" parent="1">
          <mxGeometry x="-382.5" y="-505" width="120" height="40" as="geometry" />
        </mxCell>
        <mxCell id="KeXLQscbyMb3ar5vxedf-37" value="lollipop3dchart.ejs" style="shape=card;whiteSpace=wrap;html=1;" vertex="1" parent="1">
          <mxGeometry x="-383.75" y="-455" width="122.5" height="45" as="geometry" />
        </mxCell>
        <mxCell id="KeXLQscbyMb3ar5vxedf-38" value="add.ejs" style="shape=card;whiteSpace=wrap;html=1;" vertex="1" parent="1">
          <mxGeometry x="-32.5" y="-156.25" width="122.5" height="37.5" as="geometry" />
        </mxCell>
        <mxCell id="KeXLQscbyMb3ar5vxedf-39" value="datalist.ejs" style="shape=card;whiteSpace=wrap;html=1;" vertex="1" parent="1">
          <mxGeometry x="-383.75" y="-397" width="122.5" height="40" as="geometry" />
        </mxCell>
        <mxCell id="KeXLQscbyMb3ar5vxedf-40" value="dataarray.ejs" style="shape=card;whiteSpace=wrap;html=1;" vertex="1" parent="1">
          <mxGeometry x="-383.75" y="-352" width="122.5" height="40" as="geometry" />
        </mxCell>
        <mxCell id="KeXLQscbyMb3ar5vxedf-41" value="footer.ejs" style="shape=card;whiteSpace=wrap;html=1;" vertex="1" parent="1">
          <mxGeometry x="-385" y="-307" width="122.5" height="40" as="geometry" />
        </mxCell>
        <mxCell id="KeXLQscbyMb3ar5vxedf-48" value="new.ejs" style="shape=card;whiteSpace=wrap;html=1;" vertex="1" parent="1">
          <mxGeometry x="-20" y="-15" width="85" height="45" as="geometry" />
        </mxCell>
        <mxCell id="KeXLQscbyMb3ar5vxedf-57" value="show.ejs" style="shape=card;whiteSpace=wrap;html=1;" vertex="1" parent="1">
          <mxGeometry x="102.5" y="-15" width="85" height="45" as="geometry" />
        </mxCell>
        <mxCell id="KeXLQscbyMb3ar5vxedf-79" value="&lt;div&gt;PUT&amp;nbsp;&lt;/div&gt;&lt;div&gt;DELETE&lt;/div&gt;" style="edgeStyle=orthogonalEdgeStyle;rounded=0;orthogonalLoop=1;jettySize=auto;html=1;entryX=0.5;entryY=0;entryDx=0;entryDy=0;exitX=1;exitY=0.5;exitDx=0;exitDy=0;exitPerimeter=0;" edge="1" parent="1" source="KeXLQscbyMb3ar5vxedf-65" target="KeXLQscbyMb3ar5vxedf-29">
          <mxGeometry relative="1" as="geometry">
            <Array as="points">
              <mxPoint x="280" y="-101" />
              <mxPoint x="280" y="11" />
              <mxPoint x="260" y="11" />
            </Array>
          </mxGeometry>
        </mxCell>
        <mxCell id="KeXLQscbyMb3ar5vxedf-65" value="updatedelete.ejs" style="shape=card;whiteSpace=wrap;html=1;" vertex="1" parent="1">
          <mxGeometry x="120" y="-156.25" width="122.5" height="37.5" as="geometry" />
        </mxCell>
        <mxCell id="KeXLQscbyMb3ar5vxedf-66" value="HTML" style="edgeStyle=orthogonalEdgeStyle;rounded=0;orthogonalLoop=1;jettySize=auto;html=1;entryX=0;entryY=0;entryDx=57.5;entryDy=0;entryPerimeter=0;" edge="1" parent="1" source="KeXLQscbyMb3ar5vxedf-65" target="KeXLQscbyMb3ar5vxedf-57">
          <mxGeometry relative="1" as="geometry" />
        </mxCell>
        <mxCell id="KeXLQscbyMb3ar5vxedf-80" value="POST" style="edgeStyle=orthogonalEdgeStyle;rounded=0;orthogonalLoop=1;jettySize=auto;html=1;entryX=0.5;entryY=0;entryDx=0;entryDy=0;jumpStyle=arc;" edge="1" parent="1" source="KeXLQscbyMb3ar5vxedf-62" target="KeXLQscbyMb3ar5vxedf-29">
          <mxGeometry relative="1" as="geometry">
            <Array as="points">
              <mxPoint x="390" y="-191" />
              <mxPoint x="390" y="140" />
              <mxPoint x="260" y="140" />
            </Array>
          </mxGeometry>
        </mxCell>
        <mxCell id="KeXLQscbyMb3ar5vxedf-62" value="addform.ejs" style="shape=card;whiteSpace=wrap;html=1;" vertex="1" parent="1">
          <mxGeometry x="-190" y="-210" width="122.5" height="37.5" as="geometry" />
        </mxCell>
        <mxCell id="KeXLQscbyMb3ar5vxedf-69" value="HTML" style="edgeStyle=orthogonalEdgeStyle;rounded=0;orthogonalLoop=1;jettySize=auto;html=1;entryX=0.002;entryY=0.567;entryDx=0;entryDy=0;entryPerimeter=0;" edge="1" parent="1" source="KeXLQscbyMb3ar5vxedf-35" target="KeXLQscbyMb3ar5vxedf-68">
          <mxGeometry relative="1" as="geometry" />
        </mxCell>
        <mxCell id="KeXLQscbyMb3ar5vxedf-70" value="HTML" style="edgeStyle=orthogonalEdgeStyle;rounded=0;orthogonalLoop=1;jettySize=auto;html=1;entryX=0.5;entryY=0;entryDx=0;entryDy=0;entryPerimeter=0;" edge="1" parent="1" source="KeXLQscbyMb3ar5vxedf-62" target="KeXLQscbyMb3ar5vxedf-27">
          <mxGeometry relative="1" as="geometry" />
        </mxCell>
        <mxCell id="KeXLQscbyMb3ar5vxedf-71" value="HTML" style="edgeStyle=orthogonalEdgeStyle;rounded=0;orthogonalLoop=1;jettySize=auto;html=1;entryX=0.5;entryY=0;entryDx=0;entryDy=0;entryPerimeter=0;" edge="1" parent="1" source="KeXLQscbyMb3ar5vxedf-38" target="KeXLQscbyMb3ar5vxedf-48">
          <mxGeometry relative="1" as="geometry" />
        </mxCell>
        <mxCell id="KeXLQscbyMb3ar5vxedf-34" value="HTML" style="edgeStyle=orthogonalEdgeStyle;rounded=0;orthogonalLoop=1;jettySize=auto;html=1;entryX=0;entryY=0.5;entryDx=0;entryDy=0;exitX=0.5;exitY=1;exitDx=0;exitDy=0;exitPerimeter=0;" edge="1" parent="1" source="KeXLQscbyMb3ar5vxedf-27" target="KeXLQscbyMb3ar5vxedf-29">
          <mxGeometry relative="1" as="geometry" />
        </mxCell>
        <mxCell id="KeXLQscbyMb3ar5vxedf-73" value="External libraries" style="rounded=0;whiteSpace=wrap;html=1;align=left;verticalAlign=top;strokeWidth=2;fontStyle=1" vertex="1" parent="1">
          <mxGeometry x="716" y="-326.25" width="236" height="170" as="geometry" />
        </mxCell>
        <mxCell id="KeXLQscbyMb3ar5vxedf-74" value="D3.js" style="shape=card;whiteSpace=wrap;html=1;" vertex="1" parent="1">
          <mxGeometry x="746" y="-283.75" width="160" height="45" as="geometry" />
        </mxCell>
        <mxCell id="KeXLQscbyMb3ar5vxedf-75" value="A-frame" style="shape=card;whiteSpace=wrap;html=1;" vertex="1" parent="1">
          <mxGeometry x="746" y="-226.25" width="160" height="45" as="geometry" />
        </mxCell>
        <mxCell id="KeXLQscbyMb3ar5vxedf-76" style="edgeStyle=orthogonalEdgeStyle;rounded=0;orthogonalLoop=1;jettySize=auto;html=1;entryX=1;entryY=0.5;entryDx=0;entryDy=0;entryPerimeter=0;" edge="1" parent="1" source="KeXLQscbyMb3ar5vxedf-74" target="KeXLQscbyMb3ar5vxedf-4">
          <mxGeometry relative="1" as="geometry" />
        </mxCell>
        <mxCell id="KeXLQscbyMb3ar5vxedf-77" style="edgeStyle=orthogonalEdgeStyle;rounded=0;orthogonalLoop=1;jettySize=auto;html=1;entryX=1;entryY=0.5;entryDx=0;entryDy=0;entryPerimeter=0;" edge="1" parent="1" source="KeXLQscbyMb3ar5vxedf-75" target="KeXLQscbyMb3ar5vxedf-4">
          <mxGeometry relative="1" as="geometry" />
        </mxCell>
        <mxCell id="KeXLQscbyMb3ar5vxedf-78" style="edgeStyle=orthogonalEdgeStyle;rounded=0;orthogonalLoop=1;jettySize=auto;html=1;entryX=1;entryY=0.5;entryDx=0;entryDy=0;entryPerimeter=0;jumpStyle=arc;exitX=0;exitY=0;exitDx=15;exitDy=15;exitPerimeter=0;" edge="1" parent="1" source="KeXLQscbyMb3ar5vxedf-4" target="KeXLQscbyMb3ar5vxedf-37">
          <mxGeometry relative="1" as="geometry">
            <Array as="points">
              <mxPoint x="410" y="-233" />
              <mxPoint x="410" y="-433" />
            </Array>
          </mxGeometry>
        </mxCell>
        <mxCell id="KeXLQscbyMb3ar5vxedf-81" value="Data" style="edgeStyle=orthogonalEdgeStyle;rounded=0;orthogonalLoop=1;jettySize=auto;html=1;entryX=0;entryY=0;entryDx=0;entryDy=37.5;entryPerimeter=0;jumpStyle=arc;" edge="1" parent="1" source="KeXLQscbyMb3ar5vxedf-40" target="KeXLQscbyMb3ar5vxedf-4">
          <mxGeometry relative="1" as="geometry" />
        </mxCell>
        <mxCell id="KeXLQscbyMb3ar5vxedf-82" value="Data validation" style="edgeStyle=orthogonalEdgeStyle;rounded=0;orthogonalLoop=1;jettySize=auto;html=1;entryX=0.5;entryY=0;entryDx=0;entryDy=0;entryPerimeter=0;jumpStyle=arc;exitX=0;exitY=0;exitDx=0;exitDy=37.5;exitPerimeter=0;" edge="1" parent="1" source="KeXLQscbyMb3ar5vxedf-33" target="KeXLQscbyMb3ar5vxedf-65">
          <mxGeometry x="0.2048" relative="1" as="geometry">
            <mxPoint as="offset" />
          </mxGeometry>
        </mxCell>
      </root>
    </mxGraphModel>
  </diagram>
</mxfile>
